<?xml version="1.0" standalone="no"?>
<!DOCTYPE svg PUBLIC "-//W3C//DTD SVG 20010904//EN"
 "http://www.w3.org/TR/2001/REC-SVG-20010904/DTD/svg10.dtd">
<svg version="1.0" xmlns="http://www.w3.org/2000/svg"
 width="379.000000pt" height="133.000000pt" viewBox="0 0 379.000000 133.000000"
 preserveAspectRatio="xMidYMid meet">
<metadata>
Created by potrace 1.15, written by Peter Selinger 2001-2017
</metadata>
<g transform="translate(0.000000,133.000000) scale(0.100000,-0.100000)"
fill="#000000" stroke="none">
<path d="M2830 1179 c-25 -6 -59 -17 -77 -25 -17 -8 -35 -14 -40 -14 -31 0
-223 -161 -223 -187 0 -6 -6 -16 -14 -22 -24 -20 -64 -116 -76 -180 -13 -71
-12 -220 2 -289 23 -114 128 -270 214 -319 119 -68 161 -83 251 -95 100 -13
216 -1 271 28 15 7 32 14 37 14 12 0 91 55 136 96 76 68 132 159 156 254 8 30
18 71 23 92 10 39 5 201 -7 221 -4 6 -8 18 -9 27 -6 56 -85 206 -116 218 -4 2
-8 9 -8 15 -1 7 -11 20 -23 29 -71 55 -118 88 -127 88 -6 0 -33 12 -61 26 -43
23 -64 27 -157 30 -59 2 -127 -1 -152 -7z m243 -77 c24 -11 60 -34 81 -52 43
-38 103 -153 112 -214 3 -22 8 -48 12 -56 10 -25 15 -81 15 -180 1 -134 -19
-245 -53 -292 -11 -15 -20 -31 -20 -36 0 -5 -13 -27 -29 -49 -20 -28 -51 -51
-106 -79 -70 -35 -85 -38 -151 -37 -73 1 -131 23 -190 71 -26 22 -89 110 -96
137 -4 11 -15 45 -26 75 -11 31 -23 97 -27 150 -7 97 8 299 23 309 5 4 14 26
21 51 27 95 129 192 236 221 45 12 150 2 198 -19z"/>
<path d="M505 1160 c-4 -6 -14 -10 -24 -10 -31 0 -43 -24 -30 -54 9 -19 9 -32
1 -49 -17 -35 -21 -125 -6 -138 20 -16 29 -6 53 60 37 102 90 127 251 119 l65
-3 3 -450 c3 -534 6 -513 -93 -530 -44 -8 -61 -15 -63 -28 -3 -16 13 -17 235
-15 201 3 238 5 238 18 0 9 -16 17 -45 23 -52 10 -90 41 -90 73 0 13 -5 26
-10 29 -13 8 -12 830 1 864 9 23 11 23 124 20 l114 -4 35 -34 c28 -27 37 -46
42 -83 8 -58 24 -75 53 -56 16 10 21 23 21 58 0 25 -4 50 -9 56 -6 5 -11 38
-13 74 l-3 65 -422 2 c-260 1 -425 -2 -428 -7z"/>
<path d="M1425 1160 c-11 -18 4 -27 55 -34 30 -4 60 -16 77 -30 l26 -23 -1
-439 c-1 -241 -4 -451 -8 -467 -7 -31 -45 -55 -107 -65 -27 -5 -42 -13 -42
-22 0 -23 456 -27 475 -5 18 21 9 27 -50 33 -43 4 -55 10 -80 41 l-30 36 0
187 0 187 129 -6 c71 -3 137 -2 147 2 11 4 24 9 29 10 16 2 47 15 93 38 65 33
108 85 121 148 6 29 16 59 22 66 22 26 -18 160 -66 219 -45 55 -133 101 -210
110 -30 4 -58 11 -61 15 -8 13 -511 11 -519 -1z m530 -99 c66 -36 115 -101
115 -155 0 -14 5 -28 10 -31 19 -11 -7 -126 -39 -179 -16 -26 -37 -41 -79 -57
-62 -24 -157 -35 -167 -19 -3 6 -14 10 -25 10 -10 0 -21 7 -24 16 -12 31 -7
412 6 420 42 26 150 23 203 -5z"/>
</g>
</svg>
